<svg xmlns="http://www.w3.org/2000/svg" viewBox="0 0 300 300">
  <!-- Eight identical rounded petals with increased width -->
  <!-- Top petal -->
  <path d="M150 150 Q100 70, 150 40 Q200 70, 150 150" fill="#6b30c7" />
  
  <!-- Top-right petal -->
  <path d="M150 150 Q230 100, 260 150 Q230 200, 150 150" fill="#5b28b0" />
  
  <!-- Right petal -->
  <path d="M150 150 Q230 100, 260 150 Q230 200, 150 150" transform="rotate(45, 150, 150)" fill="#7138d8" />
  
  <!-- Bottom-right petal -->
  <path d="M150 150 Q200 230, 150 260 Q100 230, 150 150" fill="#6b30c7" />
  
  <!-- Bottom petal -->
  <path d="M150 150 Q200 230, 150 260 Q100 230, 150 150" transform="rotate(45, 150, 150)" fill="#5b28b0" />
  
  <!-- Bottom-left petal -->
  <path d="M150 150 Q70 200, 40 150 Q70 100, 150 150" fill="#7138d8" />
  
  <!-- Left petal -->
  <path d="M150 150 Q70 200, 40 150 Q70 100, 150 150" transform="rotate(45, 150, 150)" fill="#6b30c7" />
  
  <!-- Top-left petal -->
  <path d="M150 150 Q100 70, 150 40 Q200 70, 150 150" transform="rotate(45, 150, 150)" fill="#5b28b0" />
  
  <!-- Inner petal highlights -->
  <path d="M150 150 Q125 100, 150 70 Q175 100, 150 150" fill="#8445e9" opacity="0.7" />
  <path d="M150 150 Q200 125, 230 150 Q200 175, 150 150" fill="#8445e9" opacity="0.7" />
  <path d="M150 150 Q175 200, 150 230 Q125 200, 150 150" fill="#8445e9" opacity="0.7" />
  <path d="M150 150 Q100 175, 70 150 Q100 125, 150 150" fill="#8445e9" opacity="0.7" />
  
  <!-- Center of flower -->
  <circle cx="150" cy="150" r="34" fill="white" />
  <circle cx="150" cy="150" r="25" fill="#ffee77" />
  <circle cx="150" cy="150" r="14" fill="white" />
</svg>
